<svg width="74" height="62" viewBox="0 0 74 62" fill="none" xmlns="http://www.w3.org/2000/svg">
<path fill-rule="evenodd" clip-rule="evenodd" d="M5.46596 19.5213C5.25886 19.5213 5.06025 19.5898 4.91381 19.7119C4.76737 19.8339 4.68511 19.9994 4.68511 20.172V56.6117C4.68511 56.9709 5.03493 57.2624 5.46596 57.2624H49.1936C49.4007 57.2624 49.5993 57.1939 49.7458 57.0718C49.8922 56.9498 49.9745 56.7843 49.9745 56.6117V20.172C49.9745 19.9994 49.8922 19.8339 49.7458 19.7119C49.5993 19.5898 49.4007 19.5213 49.1936 19.5213H5.46596ZM0 20.172C0 17.655 2.44563 15.617 5.46596 15.617H49.1936C52.2139 15.617 54.6596 17.655 54.6596 20.172V56.6117C54.6596 57.8198 54.0837 58.9783 53.0586 59.8325C52.0336 60.6868 50.6433 61.1667 49.1936 61.1667H5.46596C4.0163 61.1667 2.62601 60.6868 1.60094 59.8325C0.575876 58.9783 0 57.8198 0 56.6117V20.172ZM40.6043 1.95213C40.6043 1.43439 40.8511 0.93786 41.2904 0.571765C41.7297 0.20567 42.3255 0 42.9468 0H49.1936C49.8149 0 50.4107 0.20567 50.8501 0.571765C51.2894 0.93786 51.5362 1.43439 51.5362 1.95213C51.5362 2.46986 51.2894 2.9664 50.8501 3.33249C50.4107 3.69859 49.8149 3.90426 49.1936 3.90426H42.9468C42.3255 3.90426 41.7297 3.69859 41.2904 3.33249C40.8511 2.9664 40.6043 2.46986 40.6043 1.95213ZM62.4681 1.95213C62.4681 1.43439 62.7149 0.93786 63.1542 0.571765C63.5935 0.20567 64.1894 0 64.8106 0H67.934C69.3837 0 70.774 0.479897 71.7991 1.33412C72.8241 2.18834 73.4 3.34691 73.4 4.55496V7.1578C73.4 7.67554 73.1532 8.17207 72.7139 8.53816C72.2746 8.90426 71.6787 9.10993 71.0574 9.10993C70.4362 9.10993 69.8403 8.90426 69.401 8.53816C68.9617 8.17207 68.7149 7.67554 68.7149 7.1578V4.55496C68.7149 4.38239 68.6326 4.21687 68.4862 4.09484C68.3398 3.97281 68.1411 3.90426 67.934 3.90426H64.8106C64.1894 3.90426 63.5935 3.69859 63.1542 3.33249C62.7149 2.9664 62.4681 2.46986 62.4681 1.95213ZM71.0574 18.2199C71.6787 18.2199 72.2746 18.4255 72.7139 18.7916C73.1532 19.1577 73.4 19.6542 73.4 20.172V25.3777C73.4 25.8954 73.1532 26.3919 72.7139 26.758C72.2746 27.1241 71.6787 27.3298 71.0574 27.3298C70.4362 27.3298 69.8403 27.1241 69.401 26.758C68.9617 26.3919 68.7149 25.8954 68.7149 25.3777V20.172C68.7149 19.6542 68.9617 19.1577 69.401 18.7916C69.8403 18.4255 70.4362 18.2199 71.0574 18.2199ZM71.0574 36.4397C71.6787 36.4397 72.2746 36.6454 72.7139 37.0115C73.1532 37.3776 73.4 37.8741 73.4 38.3918V40.9947C73.4 42.2027 72.8241 43.3613 71.7991 44.2155C70.774 45.0697 69.3837 45.5496 67.934 45.5496H64.8106C64.1894 45.5496 63.5935 45.344 63.1542 44.9779C62.7149 44.6118 62.4681 44.1153 62.4681 43.5975C62.4681 43.0798 62.7149 42.5832 63.1542 42.2172C63.5935 41.8511 64.1894 41.6454 64.8106 41.6454H67.934C68.1411 41.6454 68.3398 41.5768 68.4862 41.4548C68.6326 41.3328 68.7149 41.1673 68.7149 40.9947V38.3918C68.7149 37.8741 68.9617 37.3776 69.401 37.0115C69.8403 36.6454 70.4362 36.4397 71.0574 36.4397ZM20.3427 1.33526C21.3672 0.480895 22.757 0.000603081 24.2064 0H27.3298C27.9511 0 28.5469 0.20567 28.9862 0.571765C29.4255 0.93786 29.6723 1.43439 29.6723 1.95213C29.6723 2.46986 29.4255 2.9664 28.9862 3.33249C28.5469 3.69859 27.9511 3.90426 27.3298 3.90426H24.2064C23.9993 3.90426 23.8007 3.97281 23.6542 4.09484C23.5078 4.21687 23.4255 4.38239 23.4255 4.55496V7.1578C23.4255 7.67554 23.1787 8.17207 22.7394 8.53816C22.3001 8.90426 21.7043 9.10993 21.083 9.10993C20.4617 9.10993 19.8659 8.90426 19.4265 8.53816C18.9872 8.17207 18.7404 7.67554 18.7404 7.1578V4.55496C18.7404 3.34725 19.3151 2.18638 20.3427 1.33526Z" fill="white"/>
</svg>
