<svg width="65" height="65" viewBox="0 0 65 65" fill="none" xmlns="http://www.w3.org/2000/svg">
<path d="M34.4043 14.2203C33.7784 14.1558 33.1437 14.1225 32.5 14.1225C22.3661 14.1225 14.1225 22.3661 14.1225 32.5C14.1225 42.6334 22.3661 50.877 32.5 50.877C33.1437 50.877 33.7784 50.8442 34.4043 50.7792C43.6465 49.8236 50.8785 41.9913 50.8785 32.5C50.8785 23.0087 43.6465 15.1764 34.4043 14.2203ZM34.4043 46.9443V18.0553C41.542 18.9909 47.0704 25.1111 47.0704 32.5001C47.0704 39.8892 41.542 46.0091 34.4043 46.9443ZM32.5 11.3678C33.5513 11.3678 34.4043 10.5148 34.4043 9.46347V1.9043C34.4043 0.85249 33.5513 0 32.5 0C31.4482 0 30.5957 0.85249 30.5957 1.9043V9.46347C30.5957 10.5148 31.4482 11.3678 32.5 11.3678ZM32.5 53.6322C31.4482 53.6322 30.5957 54.4852 30.5957 55.5365V63.0957C30.5957 64.1475 31.4482 65 32.5 65C33.5513 65 34.4043 64.1475 34.4043 63.0957V55.5365C34.4043 54.4847 33.5518 53.6322 32.5 53.6322ZM11.3678 32.5C11.3678 31.4482 10.5148 30.5957 9.46347 30.5957H1.9043C0.85249 30.5957 0 31.4482 0 32.5C0 33.5513 0.85249 34.4043 1.9043 34.4043H9.46347C10.5148 34.4043 11.3678 33.5518 11.3678 32.5ZM63.0957 30.5957H55.5365C54.4847 30.5957 53.6322 31.4482 53.6322 32.5C53.6322 33.5513 54.4847 34.4043 55.5365 34.4043H63.0957C64.1475 34.4043 65 33.5513 65 32.5C65 31.4482 64.1475 30.5957 63.0957 30.5957ZM14.4071 17.1C14.5838 17.2771 14.7936 17.4175 15.0247 17.5133C15.2558 17.609 15.5035 17.6582 15.7536 17.6579C16.2411 17.6579 16.7281 17.4719 17.1 17.1C17.8434 16.356 17.8434 15.1506 17.1 14.4073L11.6048 8.91186C10.8615 8.16791 9.65542 8.16791 8.91211 8.91186C8.16816 9.65529 8.16816 10.8608 8.91211 11.6047L14.4071 17.1ZM50.5929 47.9C49.8494 47.1561 48.6439 47.1561 47.9 47.9C47.1566 48.6434 47.1566 49.8489 47.9 50.5927L53.3952 56.088C53.5718 56.2651 53.7817 56.4055 54.0127 56.5013C54.2438 56.597 54.4915 56.6461 54.7416 56.6459C55.2291 56.6459 55.716 56.4599 56.088 56.088C56.8313 55.3441 56.8313 54.1385 56.088 53.3952L50.5929 47.9ZM14.4071 47.9L8.91211 53.3952C8.1688 54.1385 8.1688 55.3441 8.91211 56.0879C9.0887 56.265 9.29856 56.4055 9.52964 56.5013C9.76072 56.597 10.0084 56.6462 10.2586 56.6459C10.7456 56.6459 11.2329 56.4599 11.6049 56.088L17.1001 50.5929C17.8435 49.8489 17.8435 48.6434 17.1001 47.9C16.3568 47.1561 15.1507 47.1561 14.4074 47.9H14.4071ZM49.2464 17.6579C49.7339 17.6579 50.2209 17.4719 50.5929 17.1L56.0879 11.6048C56.8312 10.8608 56.8312 9.65542 56.0879 8.91211C55.3445 8.16816 54.1384 8.16816 53.3951 8.91211L47.8999 14.4071C47.156 15.1506 47.156 16.3561 47.8999 17.1C48.0765 17.2771 48.2863 17.4176 48.5174 17.5133C48.7484 17.6091 48.9962 17.6582 49.2463 17.6579H49.2464Z" fill="white"/>
</svg>
