<svg width="58" height="58" viewBox="0 0 58 58" fill="none" xmlns="http://www.w3.org/2000/svg">
<path d="M33.1429 29C33.1429 31.2848 31.2848 33.1429 29 33.1429C26.7152 33.1429 24.8571 31.2848 24.8571 29C24.8571 26.7152 26.7152 24.8571 29 24.8571C31.2848 24.8571 33.1429 26.7152 33.1429 29ZM10.3571 53.8571H6.21429C5.07293 53.8571 4.14286 52.9271 4.14286 51.7857V47.6429C4.14286 47.0935 3.92462 46.5666 3.53615 46.1781C3.14768 45.7897 2.62081 45.5714 2.07143 45.5714C1.52205 45.5714 0.995175 45.7897 0.606707 46.1781C0.218239 46.5666 0 47.0935 0 47.6429V51.7857C0 55.2119 2.78814 58 6.21429 58H10.3571C10.9065 58 11.4334 57.7818 11.8219 57.3933C12.2103 57.0048 12.4286 56.4779 12.4286 55.9286C12.4286 55.3792 12.2103 54.8523 11.8219 54.4638C11.4334 54.0754 10.9065 53.8571 10.3571 53.8571ZM2.07143 12.4286C2.62081 12.4286 3.14768 12.2103 3.53615 11.8219C3.92462 11.4334 4.14286 10.9065 4.14286 10.3571V6.21429C4.14286 5.07293 5.07293 4.14286 6.21429 4.14286H10.3571C10.9065 4.14286 11.4334 3.92462 11.8219 3.53615C12.2103 3.14768 12.4286 2.62081 12.4286 2.07143C12.4286 1.52205 12.2103 0.995175 11.8219 0.606707C11.4334 0.218239 10.9065 0 10.3571 0H6.21429C2.78814 0 0 2.78814 0 6.21429V10.3571C0 10.9065 0.218239 11.4334 0.606707 11.8219C0.995175 12.2103 1.52205 12.4286 2.07143 12.4286ZM51.7857 0H47.6429C47.0935 0 46.5666 0.218239 46.1781 0.606707C45.7897 0.995175 45.5714 1.52205 45.5714 2.07143C45.5714 2.62081 45.7897 3.14768 46.1781 3.53615C46.5666 3.92462 47.0935 4.14286 47.6429 4.14286H51.7857C52.9271 4.14286 53.8571 5.07293 53.8571 6.21429V10.3571C53.8571 10.9065 54.0754 11.4334 54.4638 11.8219C54.8523 12.2103 55.3792 12.4286 55.9286 12.4286C56.4779 12.4286 57.0048 12.2103 57.3933 11.8219C57.7818 11.4334 58 10.9065 58 10.3571V6.21429C58 2.78814 55.2119 0 51.7857 0ZM55.9286 45.5714C55.3792 45.5714 54.8523 45.7897 54.4638 46.1781C54.0754 46.5666 53.8571 47.0935 53.8571 47.6429V51.7857C53.8571 52.9271 52.9271 53.8571 51.7857 53.8571H47.6429C47.0935 53.8571 46.5666 54.0754 46.1781 54.4638C45.7897 54.8523 45.5714 55.3792 45.5714 55.9286C45.5714 56.4779 45.7897 57.0048 46.1781 57.3933C46.5666 57.7818 47.0935 58 47.6429 58H51.7857C55.2119 58 58 55.2119 58 51.7857V47.6429C58 47.0935 57.7818 46.5666 57.3933 46.1781C57.0048 45.7897 56.4779 45.5714 55.9286 45.5714ZM55.3424 32.1838L44.7739 40.9874C40.1632 44.2965 34.6318 46.0785 28.9565 46.0831C23.4755 46.0831 18.0111 44.4114 13.3462 41.0806L2.65557 32.1838C1.70686 31.3946 1.16414 30.2346 1.16414 29C1.16414 27.7654 1.70893 26.6054 2.65764 25.8162L13.3483 16.9194C17.9156 13.6579 23.3877 11.9046 29 11.9046C34.6123 11.9046 40.0844 13.6579 44.6517 16.9194L55.3424 25.8162C56.2911 26.6054 56.8338 27.7654 56.8338 29C56.8338 30.2346 56.2911 31.3946 55.3424 32.1838ZM37.2857 29C37.2857 24.4304 33.5696 20.7143 29 20.7143C24.4304 20.7143 20.7143 24.4304 20.7143 29C20.7143 33.5696 24.4304 37.2857 29 37.2857C33.5696 37.2857 37.2857 33.5696 37.2857 29Z" fill="white"/>
</svg>
