<svg width="84" height="63" viewBox="0 0 84 63" fill="none" xmlns="http://www.w3.org/2000/svg">
<path d="M82.8033 39.1322C81.9345 38.35 61.3109 20 41.8467 20C22.3836 20 1.76 38.35 0.890255 39.1322C0.610071 39.3843 0.386023 39.6925 0.232653 40.0367C0.0792819 40.381 1.61156e-05 40.7537 2.45709e-09 41.1306C-1.61106e-05 41.5075 0.0792178 41.8801 0.232559 42.2244C0.3859 42.5687 0.609922 42.8769 0.890084 43.129C1.75983 43.9116 22.3835 62.2588 41.8465 62.2588C61.3109 62.2588 81.9345 43.9116 82.8031 43.129C83.0836 42.8771 83.308 42.569 83.4616 42.2247C83.6151 41.8804 83.6945 41.5076 83.6945 41.1306C83.6946 40.7536 83.6152 40.3809 83.4616 40.0366C83.3081 39.6923 83.0838 39.3841 82.8033 39.1322ZM41.8465 56.3398C33.4621 56.3398 26.6379 49.5178 26.6379 41.1309C26.6379 32.7434 33.4621 25.9215 41.8465 25.9215C50.2316 25.9215 57.0562 32.7434 57.0562 41.1309C57.0563 49.5178 50.2318 56.3398 41.8465 56.3398ZM24.6294 29.876C22.5068 33.1139 21.2596 36.9763 21.2596 41.1309C21.2596 45.2793 22.5015 49.1372 24.6234 52.375C16.9244 48.7512 10.2731 43.841 6.88297 41.1284C10.2729 38.413 16.9244 33.4973 24.6294 29.876ZM59.0651 52.3826C61.1867 49.1451 62.4346 45.2827 62.4346 41.1309C62.4346 36.982 61.1898 33.1216 59.0704 29.8837C66.7671 33.5078 73.4185 38.418 76.8107 41.1309C73.4208 43.8463 66.7702 48.7589 59.0651 52.3826Z" fill="white"/>
<path d="M41.8465 32.4762C37.0651 32.4762 33.1921 36.3489 33.1921 41.131C33.1921 45.9124 37.0651 49.7854 41.8465 49.7854C46.6289 49.7854 50.5023 45.9124 50.5023 41.131C50.5025 36.3489 46.6291 32.4762 41.8465 32.4762ZM41.8465 37.9508C40.093 37.9508 38.667 39.3769 38.667 41.131C38.667 41.8739 38.0633 42.4749 37.3228 42.4749C37.1462 42.4752 36.9712 42.4407 36.808 42.3733C36.6447 42.3059 36.4964 42.207 36.3714 42.0821C36.2465 41.9572 36.1475 41.809 36.08 41.6457C36.0125 41.4825 35.9779 41.3076 35.9782 41.131C35.9782 37.8956 38.6096 35.2618 41.8467 35.2618C42.0233 35.2616 42.1982 35.2963 42.3614 35.3638C42.5246 35.4313 42.6729 35.5303 42.7978 35.6551C42.9227 35.78 43.0218 35.9282 43.0894 36.0914C43.1569 36.2545 43.1917 36.4294 43.1916 36.606C43.1916 37.3497 42.5901 37.9508 41.8465 37.9508Z" fill="white"/>
<path d="M6.032 24.224H11.888V26H3.848V9.272H6.032V24.224Z" fill="white"/>
</svg>
