<svg width="58" height="76" viewBox="0 0 58 76" fill="none" xmlns="http://www.w3.org/2000/svg">
<path d="M0.233215 10.8664V0H11.1172V3.37844H3.6099V10.8647L0.233215 10.8664ZM46.3164 0H57.1688V10.8734H53.7921V3.37844H46.3164V0ZM57.1688 43.5463V54.4039H46.3409V51.0255H53.7921V43.5463H57.1688ZM11.0944 54.4039H0.233215V43.5463H3.6099V51.0255H11.0961L11.0944 54.4039Z" fill="white"/>
<path d="M33.8423 56.9268C33.1679 57.6035 32.3667 58.1404 31.4844 58.5067C30.6022 58.8731 29.6563 59.0616 28.701 59.0616C27.7457 59.0616 26.7998 58.8731 25.9175 58.5067C25.0353 58.1404 24.234 57.6035 23.5597 56.9268C22.7758 56.1445 22.1799 55.1943 21.817 54.148C14.6989 55.7679 9.29904 58.4328 5.65586 62.1426C2.11437 65.7472 0.217398 70.3652 0 76H57.4019C57.1845 70.3669 55.2876 65.7472 51.7461 62.1426C48.1029 58.4328 42.703 55.7679 35.585 54.148C35.222 55.1943 34.6261 56.1445 33.8423 56.9268ZM14.8655 37.6064C14.2505 35.233 13.774 32.8259 13.4384 30.3972C12.2339 30.2745 11.4572 30.6128 11.0365 31.1932C10.6192 31.7665 10.4895 32.601 10.5982 33.4829C10.7139 34.4261 11.1048 35.3939 11.7132 36.1653C12.4566 37.1085 13.5453 37.7414 14.8655 37.6064ZM46.3655 31.1932C45.9447 30.6146 45.168 30.2745 43.9636 30.3972C43.628 32.8259 43.1515 35.233 42.5364 37.6064C43.8584 37.7414 44.9471 37.1067 45.6887 36.1653C46.2971 35.3939 46.6881 34.4243 46.8038 33.4829C46.9142 32.601 46.7845 31.7665 46.3655 31.1932Z" fill="white"/>
<path d="M10.8576 22.1185C10.6122 20.467 10.5526 18.5507 11.2328 16.9904C12.1585 14.869 14.4412 13.9187 16.6082 13.6242C16.7783 12.2508 17.397 10.972 18.3684 9.98629C19.8323 8.28918 22.1343 7.4529 24.8009 7.07596C30.4866 6.2765 37.1996 8.11036 41.3986 11.9236C44.7823 14.9952 46.7424 19.5255 45.5256 25.5461C45.2784 26.889 44.2914 29.2874 44.1827 30.1114C43.0904 38.22 40.9217 43.7234 37.673 46.6179C34.6084 49.3529 33.5565 52.1528 28.5563 52.1528C23.9068 52.1528 22.5516 49.1671 19.6903 46.6179C16.4434 43.7234 14.2729 38.22 13.1806 30.1114C12.9545 28.3775 11.217 24.971 10.8576 22.1168V22.1185ZM42.0297 28.4687C37.8571 25.0271 34.2332 25.6109 30.0956 25.653C26.47 25.6881 22.9951 25.7231 20.0602 23.0881L18.9487 22.0887C18.4911 24.3153 18.286 24.8062 16.7607 26.726C16.1786 27.4623 16.1436 27.543 15.281 28.4634C15.4107 28.8105 15.5299 29.1559 15.6211 29.4925C16.9763 34.5541 16.943 40.7745 21.3769 44.7279C22.1693 45.4327 22.8847 46.1989 23.6122 46.9686C24.1417 47.5296 24.6922 48.1081 25.3041 48.5798C26.3104 49.3547 27.2887 49.6194 28.5563 49.6194C29.9098 49.6194 31.0108 49.4038 32.0925 48.564C32.6816 48.1081 33.2128 47.5383 33.723 46.9984C34.4594 46.2147 35.1834 45.4433 35.9882 44.7262C39.6927 41.4231 41.0672 34.2543 41.7107 29.4925C41.7352 29.3155 41.8667 28.9227 42.0297 28.4687Z" fill="white"/>
</svg>
