<svg width="90" height="36" viewBox="0 0 90 36" fill="none" xmlns="http://www.w3.org/2000/svg">
<path d="M88.0083 14.9167H84.7565C83.3379 6.46488 76.0302 0 67.2324 0C58.5479 0 51.2775 6.14418 49.5934 14.2887C48.145 13.0745 46.4923 12.4301 44.75 12.4301C43.0092 12.4301 41.3579 13.0745 39.9095 14.2872C38.2448 6.14268 31.064 0 22.4824 0C13.061 0 5.31779 7.23608 4.55108 16.4083H1.49167C1.09605 16.4083 0.716641 16.5655 0.436899 16.8452C0.157157 17.125 0 17.5044 0 17.9C0 18.2956 0.157157 18.675 0.436899 18.9548C0.716641 19.2345 1.09605 19.3917 1.49167 19.3917H4.55108C5.31779 28.5639 13.061 35.8 22.4824 35.8C32.129 35.8 39.9886 28.0329 40.2496 18.3908C41.522 16.474 43.1062 15.4134 44.75 15.4134C46.3938 15.4134 47.978 16.4755 49.2504 18.3908C49.5159 28.0329 57.4709 35.8 67.2324 35.8C77.0431 35.8 85.025 27.7704 85.025 17.9H88.0083C88.4039 17.9 88.7834 17.7428 89.0631 17.4631C89.3428 17.1834 89.5 16.8039 89.5 16.4083C89.5 16.0127 89.3428 15.6333 89.0631 15.3536C88.7834 15.0738 88.4039 14.9167 88.0083 14.9167ZM22.4824 32.8167C14.1992 32.8167 7.45833 26.1251 7.45833 17.9C7.45833 9.67495 14.1992 2.98333 22.4824 2.98333C30.788 2.98333 37.2917 9.53623 37.2917 17.9C37.2917 26.2638 30.788 32.8167 22.4824 32.8167ZM67.2324 32.8167C58.9492 32.8167 52.2083 26.1251 52.2083 17.9C52.2083 9.67495 58.9492 2.98333 67.2324 2.98333C75.538 2.98333 82.0417 9.53623 82.0417 17.9C82.0417 26.2638 75.538 32.8167 67.2324 32.8167Z" fill="white"/>
</svg>
