<svg xmlns="http://www.w3.org/2000/svg" version="1.1" xmlnsxlink="http://www.w3.org/1999/xlink" xmlnssvgjs="http://svgjs.com/svgjs" width="512" height="512" x="0" y="0" viewBox="0 0 24 24" style="enable-background:new 0 0 512 512" xmlspace="preserve" class="">
	<g>
		<path d="M21 5a1.96 1.96 0 0 0-.075-.511L18 7.414v9.172l2.925 2.925A1.96 1.96 0 0 0 21 19zM7.414 6h9.172l2.925-2.925A1.96 1.96 0 0 0 19 3H5a1.96 1.96 0 0 0-.511.075zM3.075 4.489A1.96 1.96 0 0 0 3 5v14a1.96 1.96 0 0 0 .075.511L6 16.586V7.414zM16.586 18H7.414l-2.925 2.925A1.96 1.96 0 0 0 5 21h14a1.96 1.96 0 0 0 .511-.075z" fill="white" data-original="#000000" class="">
		</path>
	</g>
</svg>
