<svg width="96" height="60" viewBox="0 0 96 60" fill="none" xmlns="http://www.w3.org/2000/svg">
<path d="M81.7092 13.7562C63.9687 -4.51622 32.2879 -4.60237 14.4518 13.6008C9.86218 18.0549 6.21705 23.3881 3.73409 29.2821C1.25112 35.1761 -0.0187734 41.51 0.000209723 47.9056C0.000209723 48.4023 0.197537 48.8787 0.548782 49.2299C0.900027 49.5812 1.37642 49.7785 1.87315 49.7785C7.74295 49.7748 26.5211 49.7785 32.7018 49.7785C33.0142 51.5822 33.7432 53.2881 34.8309 54.7604C35.9186 56.2328 37.335 57.4309 38.9672 58.2595C40.5995 59.0881 42.4027 59.5243 44.2332 59.5333C46.0637 59.5424 47.8711 59.1241 49.5114 58.3116C51.1606 57.4907 52.5903 56.2884 53.6818 54.8043C54.7734 53.3203 55.4953 51.5974 55.7877 49.7785C62.343 49.7748 88.0341 49.7785 94.1268 49.7785C94.6236 49.7785 95.0999 49.5812 95.4512 49.2299C95.8024 48.8787 95.9998 48.4023 95.9998 47.9056C96.0202 41.5472 94.7659 35.2492 92.3111 29.3838C89.8563 23.5184 86.2506 18.2045 81.7073 13.7562H81.7092ZM58.5372 20.0849C57.9729 19.7929 57.3305 19.6878 56.7026 19.7848C56.0748 19.8818 55.494 20.1757 55.0441 20.6243L35.9925 39.556C34.2245 41.3042 33.0661 43.5751 32.6887 46.0326H12.9703C13.4435 37.0611 17.3407 28.6131 23.8585 22.43C30.3763 16.247 39.0179 12.8002 48.0019 12.8002C56.9858 12.8002 65.6274 16.247 72.1452 22.43C78.663 28.6131 82.5602 37.0611 83.0334 46.0326H56.4039L60.1273 23.2389C60.2305 22.6125 60.1321 21.9696 59.8463 21.4027C59.5605 20.8359 59.1021 20.3744 58.5372 20.0849ZM46.1289 9.12817C37.2792 9.54583 28.8415 12.9907 22.2283 18.8862L18.4187 15.0766C26.0384 8.16246 35.8479 4.14979 46.1289 3.74159V9.12817ZM73.7754 18.8862C67.1622 12.9907 58.7245 9.54583 49.8748 9.12817V3.74159C60.1561 4.15015 69.9657 8.16351 77.585 15.0785L73.7754 18.8862ZM15.7423 17.6988L19.55 21.5064C13.315 28.2029 9.6564 36.8931 9.22445 46.0326H3.7873C4.21391 35.4529 8.46127 25.3864 15.7423 17.6988ZM47.8258 54.9666C39.8527 59.0196 32.2673 48.4956 38.6334 42.2118L56.0611 24.8965L52.0999 49.1417C51.9042 50.3833 51.4141 51.56 50.6705 52.5734C49.9269 53.5868 48.9515 54.4074 47.8258 54.9666ZM86.7793 46.0326C86.3473 36.8931 82.6887 28.2029 76.4537 21.5064L80.2596 17.6988C87.5415 25.3859 91.7896 35.4525 92.2164 46.0326H86.7793Z" fill="white"/>
</svg>
