<svg width="75" height="41" viewBox="0 0 75 41" fill="none" xmlns="http://www.w3.org/2000/svg">
<path d="M45.6057 0C42.7332 0 39.9626 0.857038 37.5001 2.49395C35.0374 0.857184 32.2671 0 29.3945 0C25.6205 0 19.5953 2.9158 10.9746 8.91447C6.03326 12.3527 1.78199 15.7428 0.214014 17.0153H74.7861C73.2183 15.7428 68.9667 12.3527 64.0254 8.91447C55.4049 2.91595 49.3795 0 45.6057 0ZM0 21.5541C1.47349 23.1782 5.14337 26.9916 10.3614 30.8347C14.3394 33.7646 18.3988 36.1035 22.4267 37.7861C27.5318 39.9186 32.6029 41 37.5001 41C42.3969 41 47.4684 39.9186 52.5732 37.7861C56.6011 36.1033 60.6605 33.7646 64.6387 30.8347C69.8565 26.9918 73.5265 23.1782 75 21.5541H0Z" fill="white"/>
</svg>
