<svg xmlns="http://www.w3.org/2000/svg" version="1.1" xmlnsxlink="http://www.w3.org/1999/xlink" xmlnssvgjs="http://svgjs.com/svgjs" width="512" height="512" x="0" y="0" viewBox="0 0 502.432 502.432" style="enable-background:new 0 0 512 512" xmlspace="preserve" class="">
	<g>
		<path d="M368.488 159.792c-19.056-17.792-38.752-36.192-56.912-55.04A606.598 606.598 0 0 1 233.016 0l-27.808 15.824a627.19 627.19 0 0 0 83.312 111.104c18.768 19.488 38.784 38.176 58.128 56.256 30.512 28.48 72.304 67.504 72.304 81.056 0 60.08-39.008 83.376-76.8 105.936-23.504 14.032-45.696 27.28-56.448 48.768a54.204 54.204 0 0 0-5.472 24.544 121.234 121.234 0 0 0 19.952 58.944l26.672-17.712a93.03 93.03 0 0 1-14.576-41.2 22.794 22.794 0 0 1 2.08-10.208 114.542 114.542 0 0 1 44.256-35.648c38.96-23.28 92.336-55.136 92.336-133.392 0-26.208-29.792-55.312-82.464-104.48z" fill="white" data-original="#000000" class="">
		</path>
		<path d="M110.92 376.032c-17.588-7.403-28.557-25.133-27.328-44.176a120.455 120.455 0 0 1 11.44-46.928l-28.544-14.4A152.001 152.001 0 0 0 51.56 331.92c-1.434 31.499 16.755 60.604 45.696 73.12a50.465 50.465 0 0 0 21.856 4.8c23.616 0 47.648-14.848 73.088-30.576 28.144-17.44 57.216-35.344 86.832-35.344v-32c-38.704 0-73.184 21.312-103.632 40.128-25.968 15.984-50.144 30.848-64.48 23.984z" fill="white" data-original="#000000" class="">
		</path>
	</g>
</svg>
