<svg width="70" height="70" viewBox="0 0 70 70" fill="none" xmlns="http://www.w3.org/2000/svg">
<path d="M1.1423 69.0131C0.872666 69.0107 0.612409 68.9138 0.406816 68.7394C0.201222 68.5649 0.0633069 68.3239 0.0170717 68.0582C-0.0291636 67.7926 0.0192075 67.5191 0.153767 67.2855C0.288327 67.0518 0.500557 66.8727 0.753524 66.7794L18.3771 60.4509C19.0538 60.2149 19.6404 59.7744 20.0558 59.1904C20.4712 58.6065 20.6949 57.9078 20.696 57.1912V48.9994C20.696 48.6943 20.8171 48.4017 21.0328 48.186C21.2486 47.9703 21.5411 47.8491 21.8462 47.8491C22.1512 47.8491 22.4438 47.9703 22.6595 48.186C22.8752 48.4017 22.9964 48.6943 22.9964 48.9994V57.1912C22.9952 58.3834 22.6242 59.5458 21.9344 60.5182C21.2447 61.4906 20.2702 62.225 19.1455 62.6202L1.53107 68.9464C1.40629 68.9908 1.27476 69.0134 1.1423 69.0131ZM67.8548 69.0131C67.7223 69.0134 67.5908 68.9908 67.466 68.9464L49.8424 62.6179C48.7199 62.221 47.7479 61.4862 47.06 60.5145C46.372 59.5427 46.002 58.3818 46.0007 57.1912V48.7693C46.0007 48.4643 46.1219 48.1717 46.3376 47.956C46.5533 47.7403 46.8458 47.6191 47.1509 47.6191C47.456 47.6191 47.7485 47.7403 47.9642 47.956C48.1799 48.1717 48.3011 48.4643 48.3011 48.7693V57.1912C48.3011 58.6543 49.2282 59.9655 50.6107 60.4509L68.2435 66.7817C68.4975 66.8739 68.711 67.0525 68.8464 67.2863C68.9818 67.5201 69.0307 67.7941 68.9843 68.0603C68.9379 68.3265 68.7993 68.5679 68.5928 68.7421C68.3862 68.9163 68.125 69.0122 67.8548 69.0131ZM51.7978 38.3024C51.5255 38.304 51.2614 38.209 51.0526 38.0343C50.8438 37.8595 50.7037 37.6164 50.6573 37.3481C50.611 37.0797 50.6613 36.8037 50.7993 36.569C50.9374 36.3343 51.1542 36.1562 51.4113 36.0663C52.5205 35.6699 53.4801 34.9404 54.1587 33.9776C54.8374 33.0148 55.2019 31.8658 55.2024 30.6879V27.3523C55.2032 27.168 55.1594 26.9862 55.0749 26.8224C54.9904 26.6586 54.8676 26.5176 54.717 26.4114C54.5697 26.3052 54.3991 26.2355 54.2195 26.2083C54.0399 26.1811 53.8563 26.1971 53.6841 26.255L53.4219 26.3355C53.1361 26.4043 52.8349 26.3614 52.5797 26.2154C52.3246 26.0695 52.1349 25.8315 52.0494 25.5503C51.9638 25.2691 51.989 24.9658 52.1197 24.7026C52.2504 24.4393 52.4767 24.2359 52.7524 24.134L52.9825 24.065C53.4966 23.8941 54.0441 23.8484 54.5794 23.9316C55.1148 24.0148 55.6225 24.2246 56.0605 24.5435C56.9645 25.1922 57.5028 26.2435 57.5028 27.3523V30.6879C57.5028 34.0719 55.3634 37.1038 52.1819 38.2356C52.0587 38.28 51.9287 38.3026 51.7978 38.3024ZM17.2223 38.3254C17.0923 38.3255 16.9632 38.3037 16.8404 38.2609C15.2764 37.7051 13.9229 36.6788 12.9656 35.3228C12.0084 33.9668 11.4944 32.3477 11.4942 30.6879V27.3523C11.4956 26.8044 11.627 26.2647 11.8775 25.7775C12.1281 25.2903 12.4907 24.8695 12.9356 24.5497C13.3805 24.2299 13.8949 24.0203 14.4365 23.938C14.9782 23.8557 15.5316 23.9032 16.0514 24.0765L16.3228 24.1685C16.47 24.2131 16.6068 24.2868 16.725 24.3852C16.8432 24.4836 16.9405 24.6046 17.0111 24.7413C17.0817 24.8779 17.1242 25.0273 17.136 25.1807C17.1479 25.334 17.1288 25.4882 17.0801 25.634C17.0313 25.7799 16.9537 25.9145 16.852 26.0299C16.7503 26.1452 16.6265 26.239 16.4879 26.3057C16.3494 26.3724 16.1988 26.4106 16.0452 26.4181C15.8916 26.4256 15.738 26.4022 15.5936 26.3493L15.3175 26.2573C15.1438 26.1978 14.9584 26.1808 14.7767 26.2076C14.5951 26.2344 14.4225 26.3044 14.2734 26.4116C14.1243 26.5188 14.003 26.6601 13.9197 26.8238C13.8365 26.9875 13.7936 27.1687 13.7947 27.3523V30.6879C13.7947 33.1149 15.3268 35.2888 17.6042 36.0916C17.8592 36.1825 18.074 36.3604 18.2108 36.5941C18.3476 36.8277 18.3976 37.1021 18.3519 37.369C18.3063 37.6358 18.168 37.8781 17.9614 38.053C17.7548 38.2279 17.493 38.3244 17.2223 38.3254Z" fill="white"/>
<path d="M38.6623 57.5109H30.3348C30.1646 57.51 29.9967 57.4723 29.8425 57.4005C25.9985 55.5832 20.9766 49.9103 18.7935 46.6483C17.7008 44.9644 16.8197 41.9278 16.0836 37.3569C15.566 34.088 15.1381 30.0438 14.8069 25.3394C14.6895 23.8027 14.5975 22.2338 14.5055 20.6695C14.3484 18.0052 14.7414 15.337 15.66 12.831C16.5785 10.325 18.003 8.03493 19.8448 6.10322C21.6651 4.16618 23.8646 2.62467 26.3065 1.57468C28.7485 0.524698 31.3804 -0.0112631 34.0385 0.000179427H34.9816C40.4038 0.000179427 45.4463 2.17179 49.1799 6.11242C51.0172 8.03643 52.4387 10.3182 53.3557 12.8155C54.2727 15.3129 54.6657 17.9723 54.51 20.6281L54.2339 25.3049C53.8728 30.0875 53.4357 34.1271 52.9342 37.3316C52.1958 41.9623 51.2848 45.0242 50.1507 46.7012C47.9239 49.9885 42.8905 55.6614 39.1477 57.4051C38.9953 57.4746 38.8298 57.5107 38.6623 57.5109ZM30.6039 55.2105H38.3978C41.34 53.7106 45.8167 48.9993 48.2459 45.4107C48.8831 44.4675 49.8217 42.2384 50.6614 36.9727C51.156 33.8326 51.5839 29.8552 51.9404 25.1508L52.2165 20.4993C52.3527 18.1563 52.0051 15.8104 51.1953 13.6075C50.3856 11.4047 49.131 9.3921 47.5098 7.69512C45.9035 5.9844 43.9622 4.62262 41.8069 3.69455C39.6516 2.76648 37.3283 2.29199 34.9816 2.30061H34.0385C31.6931 2.29034 29.3708 2.7632 27.2162 3.68972C25.0615 4.61623 23.1208 5.97656 21.5149 7.68592C19.8909 9.38861 18.6347 11.4074 17.8245 13.6165C17.0144 15.8257 16.6677 18.178 16.8059 20.5269C16.898 22.0866 16.99 23.6417 17.1073 25.1738C17.434 29.8207 17.8526 33.7958 18.361 36.998C19.1961 42.2131 20.1048 44.4376 20.719 45.3854C23.0424 48.8567 27.6134 53.6692 30.6039 55.2105Z" fill="white"/>
</svg>
