<svg width="76" height="72" viewBox="0 0 76 72" fill="none" xmlns="http://www.w3.org/2000/svg">
<path d="M63.5978 60.1898L64.2338 58.9378L65.5051 58.7879C68.1471 56.5396 71.1029 54.6972 74.2864 53.3443C74.958 53.0588 75.3992 52.4061 75.3992 51.6763V51.6761C75.3992 50.9464 74.958 50.2936 74.2864 50.0081C70.8341 48.5411 67.6494 46.4985 64.8426 43.9863L55.2675 37.8108L22.6144 36L17 43.2435V60.8954L22.7155 66.2183L48.0239 67.2377L63.5978 60.1898Z" fill="#F27182"/>
<path d="M17.9187 50.5983C17.9187 46.1159 19.0429 41.8964 21.0231 38.2046H16.6007L11.8863 42.0027L11.5076 43.2656L9.768 43.5991C7.15809 45.799 4.24584 47.6049 1.11284 48.9363C0.44121 49.2218 0 49.8745 0 50.6043C0 51.3341 0.44121 51.987 1.11284 52.2723C4.56547 53.7395 7.75062 55.7822 10.5574 58.2947L15.5193 61.6761L21.1387 63.2056C19.0866 59.4634 17.9187 55.1674 17.9187 50.5983Z" fill="#ED5469"/>
<path d="M65.4043 35.8391C65.1076 35.8395 64.8227 35.723 64.6112 35.5148C56.4508 27.4999 47.0758 23.2636 37.5 23.2636C27.9242 23.2636 18.5493 27.4999 10.3887 35.5148C10.2828 35.62 10.1573 35.7031 10.0192 35.7596C9.88106 35.816 9.73317 35.8446 9.58398 35.8437C9.4348 35.8427 9.28727 35.8123 9.14987 35.7542C9.01248 35.696 8.88794 35.6113 8.78341 35.5049C8.67888 35.3984 8.59642 35.2724 8.54078 35.134C8.48514 34.9955 8.45741 34.8475 8.45919 34.6983C8.46097 34.5491 8.49222 34.4018 8.55115 34.2647C8.61007 34.1277 8.69552 34.0036 8.80256 33.8997C17.3953 25.4607 27.3187 21 37.5 21C47.6813 21 57.6048 25.4607 66.1974 33.8998C66.3576 34.0573 66.4673 34.2589 66.5126 34.479C66.5579 34.6991 66.5366 34.9276 66.4516 35.1356C66.3665 35.3435 66.2215 35.5215 66.035 35.6468C65.8485 35.7721 65.629 35.839 65.4043 35.8391Z" fill="#FFA68E"/>
<path d="M49.5779 37.7657L46.4059 34.9279H28.5942L25.4222 37.7657C23.2991 40.4144 22.0283 43.7758 22.0283 47.4344C22.0283 55.9791 28.9553 62.906 37.5 62.906C46.0416 62.906 52.9716 55.9811 52.9716 47.4344C52.9718 43.7758 51.7009 40.4144 49.5779 37.7657Z" fill="#E63850"/>
<path d="M58.4663 54.8522C58.2371 54.8522 58.0132 54.7827 57.8244 54.6527C57.6356 54.5228 57.4907 54.3386 57.4089 54.1245C57.327 53.9104 57.3121 53.6765 57.3661 53.4537C57.42 53.231 57.5404 53.0299 57.7111 52.877L59.8615 50.9529C60.0859 50.7571 60.3783 50.6575 60.6756 50.6758C60.9728 50.6942 61.2509 50.8289 61.4494 51.0508C61.648 51.2728 61.7511 51.564 61.7364 51.8615C61.7217 52.1589 61.5904 52.4386 61.3709 52.6398L59.2205 54.5639C59.0133 54.7498 58.7446 54.8525 58.4663 54.8522Z" fill="#F78B98"/>
<path d="M64.4434 58.2943L64.4442 58.2944C64.6625 58.0989 64.883 57.906 65.1059 57.7158V55.3959C65.1067 54.7645 64.9683 54.1406 64.7005 53.5688C64.4327 52.9969 64.042 52.4912 63.5564 52.0876L61.7665 50.5959C61.5362 50.4045 61.3509 50.1646 61.2238 49.8933C61.0968 49.6221 61.0311 49.3262 61.0315 49.0267V47.1183C61.0315 46.8181 60.9122 46.5302 60.7 46.318C60.4877 46.1058 60.1999 45.9865 59.8997 45.9865C59.5996 45.9865 59.3117 46.1058 59.0995 46.318C58.8872 46.5302 58.768 46.8181 58.768 47.1183V49.0267C58.7672 49.6581 58.9056 50.282 59.1734 50.8538C59.4413 51.4256 59.8319 51.9314 60.3175 52.335L62.1075 53.8266C62.3379 54.0181 62.5232 54.258 62.6502 54.5292C62.7772 54.8005 62.8429 55.0964 62.8424 55.3959V59.3533L64.4434 58.2943ZM14.2578 50.5983C14.0286 50.5983 13.8047 50.5288 13.6159 50.3988C13.4271 50.2689 13.2822 50.0847 13.2004 49.8706C13.1185 49.6565 13.1036 49.4226 13.1576 49.1999C13.2115 48.9771 13.3319 48.776 13.5026 48.6231L15.653 46.699C15.8774 46.5032 16.1699 46.4036 16.4671 46.4219C16.7643 46.4403 17.0424 46.575 17.241 46.7969C17.4395 47.0189 17.5426 47.3101 17.5279 47.6076C17.5132 47.905 17.3819 48.1847 17.1624 48.3859L15.012 50.31C14.8048 50.4959 14.5361 50.5986 14.2578 50.5983Z" fill="#F78B98"/>
<path d="M11.3175 49.175L13.1074 50.6667C13.3377 50.8581 13.523 51.098 13.6501 51.3693C13.7771 51.6405 13.8428 51.9365 13.8424 52.236V54.1444C13.8424 54.4445 13.9617 54.7324 14.1739 54.9446C14.3861 55.1569 14.674 55.2761 14.9742 55.2761C15.2743 55.2761 15.5622 55.1569 15.7744 54.9446C15.9867 54.7324 16.1059 54.4445 16.1059 54.1444V52.2361C16.1067 51.6047 15.9682 50.9808 15.7004 50.409C15.4326 49.8372 15.042 49.3314 14.5564 48.9278L12.7665 47.4361C12.5361 47.2447 12.3508 47.0048 12.2238 46.7336C12.0967 46.4623 12.031 46.1664 12.0314 45.8669V41.9031L10.5565 42.9146L10.555 42.9137C10.2959 43.146 10.0335 43.3745 9.76783 43.5993V45.8669C9.76706 46.4983 9.90554 47.1221 10.1734 47.6939C10.4412 48.2657 10.8319 48.7714 11.3175 49.175Z" fill="#F78B98"/>
<path d="M37.4999 64.6536C31.6375 64.6536 25.9803 63.8173 20.6487 62.2656L20.2854 63.3991L23.3288 67.3729L25.6959 69.2502C29.3988 70.6953 33.3689 71.4812 37.4999 71.4812C47.0801 71.4812 55.7981 67.2644 62.3124 60.366C62.9934 59.6459 63.7044 58.9547 64.4433 58.2943C56.3967 62.3529 47.2301 64.6536 37.4999 64.6536Z" fill="#FFCEBE"/>
<path d="M20.6487 62.2656C17.1699 61.2543 13.7916 59.9248 10.5565 58.2941C11.2955 58.9545 12.0065 59.6457 12.6874 60.3658C16.3927 64.2896 20.8116 67.3441 25.6958 69.2501C23.6413 67.2149 21.9361 64.8552 20.6487 62.2656Z" fill="#FFB1A0"/>
<path d="M40.447 55.84C45.0885 54.2128 47.5321 49.1309 45.9048 44.4894C44.2775 39.8478 39.1957 37.4042 34.5541 39.0315C29.9126 40.6588 27.469 45.7407 29.0963 50.3822C30.7235 55.0238 35.8054 57.4673 40.447 55.84Z" fill="#865151"/>
<path d="M62.3124 40.8426C55.7981 33.9442 47.08 29.7274 37.4999 29.7274C33.3613 29.7274 29.3841 30.5159 25.6753 31.9661L23.2406 33.4564L20.6374 37.1913L20.6415 38.945C25.9751 37.392 31.6348 36.555 37.4999 36.555C47.2301 36.555 56.3966 38.8557 64.4433 42.9142C63.7043 42.2538 62.9933 41.5627 62.3124 40.8426Z" fill="#FFCEBE"/>
<path d="M25.6753 31.9662C20.7991 33.8729 16.3876 36.9246 12.6875 40.8427C12.0065 41.5628 11.2956 42.2541 10.5566 42.9146C13.7895 41.2851 17.1654 39.9564 20.6416 38.9453C21.9254 36.3587 23.626 34.0008 25.6753 31.9662Z" fill="#FFB1A0"/>
<path d="M8.032 24.224H13.888V26H5.848V9.272H8.032V24.224Z" fill="white"/>
</svg>
