<svg width="76" height="71" viewBox="0 0 76 71" fill="none" xmlns="http://www.w3.org/2000/svg">
<path d="M63.5978 59.1898L64.2338 57.9378L65.5051 57.7879C68.1471 55.5396 71.1029 53.6972 74.2864 52.3443C74.958 52.0588 75.3992 51.4061 75.3992 50.6763V50.6761C75.3992 49.9464 74.958 49.2936 74.2864 49.0081C70.8341 47.5411 67.6494 45.4985 64.8426 42.9863L55.2675 36.8108L22.6144 35L17 42.2435V59.8954L22.7155 65.2183L48.0239 66.2377L63.5978 59.1898Z" fill="#F27182"/>
<path d="M17.9187 49.5983C17.9187 45.1159 19.0429 40.8964 21.0231 37.2046H16.6007L11.8863 41.0027L11.5076 42.2656L9.768 42.5991C7.15809 44.799 4.24584 46.6049 1.11284 47.9363C0.44121 48.2218 0 48.8745 0 49.6043C0 50.3341 0.44121 50.987 1.11284 51.2723C4.56547 52.7395 7.75062 54.7822 10.5574 57.2947L15.5193 60.6761L21.1387 62.2056C19.0866 58.4634 17.9187 54.1674 17.9187 49.5983Z" fill="#ED5469"/>
<path d="M65.4043 34.8391C65.1076 34.8395 64.8227 34.723 64.6112 34.5148C56.4508 26.4999 47.0758 22.2636 37.5 22.2636C27.9242 22.2636 18.5493 26.4999 10.3887 34.5148C10.2828 34.62 10.1573 34.7031 10.0192 34.7596C9.88106 34.816 9.73317 34.8446 9.58398 34.8437C9.4348 34.8427 9.28727 34.8123 9.14987 34.7542C9.01248 34.696 8.88794 34.6113 8.78341 34.5049C8.67888 34.3984 8.59642 34.2724 8.54078 34.134C8.48514 33.9955 8.45741 33.8475 8.45919 33.6983C8.46097 33.5491 8.49222 33.4018 8.55115 33.2647C8.61007 33.1277 8.69552 33.0036 8.80256 32.8997C17.3953 24.4607 27.3187 20 37.5 20C47.6813 20 57.6048 24.4607 66.1974 32.8998C66.3576 33.0573 66.4673 33.2589 66.5126 33.479C66.5579 33.6991 66.5366 33.9276 66.4516 34.1356C66.3665 34.3435 66.2215 34.5215 66.035 34.6468C65.8485 34.7721 65.629 34.839 65.4043 34.8391Z" fill="#FFA68E"/>
<path d="M49.5779 36.7657L46.4059 33.9279H28.5942L25.4222 36.7657C23.2991 39.4144 22.0283 42.7758 22.0283 46.4344C22.0283 54.9791 28.9553 61.906 37.5 61.906C46.0416 61.906 52.9716 54.9811 52.9716 46.4344C52.9718 42.7758 51.7009 39.4144 49.5779 36.7657Z" fill="#E63850"/>
<path d="M58.4663 53.8522C58.2371 53.8522 58.0132 53.7826 57.8244 53.6527C57.6356 53.5228 57.4907 53.3386 57.4089 53.1245C57.327 52.9104 57.3121 52.6765 57.3661 52.4537C57.42 52.231 57.5404 52.0299 57.7111 51.877L59.8615 49.9529C60.0859 49.7571 60.3783 49.6575 60.6756 49.6758C60.9728 49.6941 61.2509 49.8289 61.4494 50.0508C61.648 50.2728 61.7511 50.564 61.7364 50.8615C61.7217 51.1589 61.5904 51.4386 61.3709 51.6398L59.2205 53.5639C59.0133 53.7498 58.7446 53.8525 58.4663 53.8522Z" fill="#F78B98"/>
<path d="M64.4434 57.2943L64.4442 57.2944C64.6625 57.0989 64.883 56.906 65.1059 56.7158V54.3959C65.1067 53.7645 64.9683 53.1406 64.7005 52.5688C64.4327 51.9969 64.042 51.4912 63.5564 51.0876L61.7665 49.5959C61.5362 49.4045 61.3509 49.1646 61.2238 48.8933C61.0968 48.6221 61.0311 48.3262 61.0315 48.0267V46.1183C61.0315 45.8181 60.9122 45.5302 60.7 45.318C60.4877 45.1058 60.1999 44.9865 59.8997 44.9865C59.5996 44.9865 59.3117 45.1058 59.0995 45.318C58.8872 45.5302 58.768 45.8181 58.768 46.1183V48.0267C58.7672 48.6581 58.9056 49.282 59.1734 49.8538C59.4413 50.4256 59.8319 50.9314 60.3175 51.335L62.1075 52.8266C62.3379 53.0181 62.5232 53.258 62.6502 53.5292C62.7772 53.8005 62.8429 54.0964 62.8424 54.3959V58.3533L64.4434 57.2943ZM14.2578 49.5983C14.0286 49.5983 13.8047 49.5288 13.6159 49.3988C13.4271 49.2689 13.2822 49.0847 13.2004 48.8706C13.1185 48.6565 13.1036 48.4226 13.1576 48.1999C13.2115 47.9771 13.3319 47.776 13.5026 47.6231L15.653 45.699C15.8774 45.5032 16.1699 45.4036 16.4671 45.4219C16.7643 45.4403 17.0424 45.575 17.241 45.7969C17.4395 46.0189 17.5426 46.3101 17.5279 46.6076C17.5132 46.905 17.3819 47.1847 17.1624 47.3859L15.012 49.31C14.8048 49.4959 14.5361 49.5986 14.2578 49.5983Z" fill="#F78B98"/>
<path d="M11.3175 48.175L13.1074 49.6667C13.3377 49.8581 13.523 50.098 13.6501 50.3693C13.7771 50.6405 13.8428 50.9365 13.8424 51.236V53.1444C13.8424 53.4445 13.9617 53.7324 14.1739 53.9446C14.3861 54.1569 14.674 54.2761 14.9742 54.2761C15.2743 54.2761 15.5622 54.1569 15.7744 53.9446C15.9867 53.7324 16.1059 53.4445 16.1059 53.1444V51.2361C16.1067 50.6047 15.9682 49.9808 15.7004 49.409C15.4326 48.8372 15.042 48.3314 14.5564 47.9278L12.7665 46.4361C12.5361 46.2447 12.3508 46.0048 12.2238 45.7336C12.0967 45.4623 12.031 45.1664 12.0314 44.8669V40.9031L10.5565 41.9146L10.555 41.9137C10.2959 42.146 10.0335 42.3745 9.76783 42.5993V44.8669C9.76706 45.4983 9.90554 46.1221 10.1734 46.6939C10.4412 47.2657 10.8319 47.7714 11.3175 48.175Z" fill="#F78B98"/>
<path d="M37.4999 63.6536C31.6375 63.6536 25.9803 62.8173 20.6487 61.2656L20.2854 62.3991L23.3288 66.3729L25.6959 68.2503C29.3988 69.6953 33.3689 70.4812 37.4999 70.4812C47.0801 70.4812 55.7981 66.2644 62.3124 59.366C62.9934 58.6459 63.7044 57.9547 64.4433 57.2943C56.3967 61.3529 47.2301 63.6536 37.4999 63.6536Z" fill="#FFCEBE"/>
<path d="M20.6487 61.2656C17.1699 60.2543 13.7916 58.9248 10.5565 57.2941C11.2955 57.9546 12.0065 58.6457 12.6874 59.3658C16.3927 63.2896 20.8116 66.3441 25.6958 68.2501C23.6413 66.2149 21.9361 63.8552 20.6487 61.2656Z" fill="#FFB1A0"/>
<path d="M40.447 54.84C45.0885 53.2128 47.5321 48.1309 45.9048 43.4894C44.2775 38.8478 39.1957 36.4042 34.5541 38.0315C29.9126 39.6588 27.469 44.7407 29.0963 49.3822C30.7235 54.0238 35.8054 56.4673 40.447 54.84Z" fill="#865151"/>
<path d="M62.3124 39.8426C55.7981 32.9442 47.08 28.7274 37.4999 28.7274C33.3613 28.7274 29.3841 29.5159 25.6753 30.9661L23.2406 32.4564L20.6374 36.1913L20.6415 37.945C25.9751 36.392 31.6348 35.555 37.4999 35.555C47.2301 35.555 56.3966 37.8557 64.4433 41.9142C63.7043 41.2538 62.9933 40.5627 62.3124 39.8426Z" fill="#FFCEBE"/>
<path d="M25.6753 30.9662C20.7991 32.8729 16.3876 35.9246 12.6875 39.8427C12.0065 40.5628 11.2956 41.2541 10.5566 41.9146C13.7895 40.2851 17.1654 38.9564 20.6416 37.9453C21.9254 35.3587 23.626 33.0008 25.6753 30.9662Z" fill="#FFB1A0"/>
<path d="M69.656 26L65.672 19.16H63.032V26H60.848V9.272H66.248C67.512 9.272 68.576 9.488 69.44 9.92C70.32 10.352 70.976 10.936 71.408 11.672C71.84 12.408 72.056 13.248 72.056 14.192C72.056 15.344 71.72 16.36 71.048 17.24C70.392 18.12 69.4 18.704 68.072 18.992L72.272 26H69.656ZM63.032 17.408H66.248C67.432 17.408 68.32 17.12 68.912 16.544C69.504 15.952 69.8 15.168 69.8 14.192C69.8 13.2 69.504 12.432 68.912 11.888C68.336 11.344 67.448 11.072 66.248 11.072H63.032V17.408Z" fill="white"/>
</svg>
