<svg width="63" height="72" viewBox="0 0 63 72" fill="none" xmlns="http://www.w3.org/2000/svg">
<path d="M55.0749 70C54.6061 70 54.1771 69.6879 54.0496 69.2137C53.7747 68.1937 53.351 67.0316 52.9034 65.8018C50.9033 60.314 48.166 52.7994 53.3882 44.4044C53.4081 44.3712 53.4307 44.3406 53.4546 44.3101C56.913 39.898 58.7419 34.6015 58.7419 28.9955C58.7405 15.2812 47.5697 4.125 33.8382 4.125C24.297 4.125 16.7107 7.37094 12.4753 13.2652C8.99961 18.1022 8.04868 24.3311 9.93196 29.9265C11.3597 34.134 9.22672 38.5487 6.33805 40.3868C4.12407 41.7933 4.11875 42.4985 4.12672 42.5742C4.17985 43.1732 6.01664 43.9223 6.80024 44.2423C7.9411 44.7085 8.69547 45.0166 8.8761 45.7896C9.03813 46.4895 8.81633 47.2904 7.92649 49.2215C7.79766 49.4991 8.15625 49.8829 8.82032 50.454C9.04078 50.6439 9.23071 50.8073 9.3861 50.9866C9.6411 51.288 9.74868 51.6506 9.69555 52.0132C9.62383 52.5033 9.30242 52.8061 9.01157 53.0146C11.5257 54.9284 11.4978 56.7559 11.4699 58.525C11.4686 58.6498 11.4659 58.776 11.4646 58.9035C11.458 60.0244 11.4832 61.1733 11.8418 61.7988C11.9693 62.0206 12.2668 62.5386 13.9097 62.5691C13.9867 62.5705 14.0664 62.5718 14.1461 62.5718C18.9685 62.5718 27.6863 59.4905 31.2776 55.7612C32.4091 54.5858 32.951 53.4542 32.8886 52.3997C32.8541 51.814 33.3003 51.3106 33.886 51.2761C34.4717 51.2415 34.9751 51.6878 35.0096 52.2735C35.1092 53.9456 34.3694 55.6151 32.8089 57.2354C31.2749 58.8291 29.033 60.2728 26.5468 61.4575C28.3119 63.4112 29.0875 65.6238 29.2296 68.8883C29.2548 69.474 28.8006 69.9708 28.2149 69.996C27.6279 70.0239 27.1325 69.567 27.1073 68.9813C26.9745 65.9452 26.2466 64.0832 24.4683 62.3646C20.7123 63.8667 16.7067 64.7565 13.8672 64.6941C9.31039 64.6065 9.32766 61.3008 9.34094 58.8889C9.34227 58.7534 9.3436 58.6219 9.34625 58.4918C9.37149 56.8861 9.3861 55.9165 7.59313 54.6057C7.32883 54.4118 6.53063 53.8248 6.55586 52.915C6.57047 52.4037 6.8268 52.0371 7.10836 51.7755C6.33407 51.0716 5.27821 49.8762 5.99938 48.3263C6.44696 47.3555 6.65016 46.8176 6.73649 46.5201C6.51868 46.4205 6.2318 46.3036 5.99672 46.208C4.38571 45.5505 2.17836 44.6487 2.00969 42.7615C1.84766 40.9433 3.75086 39.5102 5.19852 38.5912C7.3461 37.2245 8.99828 33.782 7.91985 30.6052C5.81875 24.359 6.87594 17.4142 10.7501 12.0234C12.9561 8.95406 15.9444 6.53156 19.6313 4.82226C23.6754 2.94961 28.4553 2 33.8382 2C41.0048 2 47.7729 4.80766 52.8955 9.90367C58.0353 15.0183 60.8669 21.7984 60.8669 28.9941C60.8669 35.061 58.8946 40.7932 55.1639 45.5744C50.5274 53.0704 52.9526 59.7243 54.9009 65.074C55.3658 66.349 55.8041 67.5523 56.1029 68.6612C56.2556 69.2283 55.9196 69.8114 55.3525 69.9628C55.2595 69.988 55.1666 70 55.0749 70Z" fill="white" stroke="white" stroke-width="2.5"/>
</svg>
