<svg width="65" height="65" viewBox="0 0 65 65" fill="none" xmlns="http://www.w3.org/2000/svg">
<path d="M57.2067 53.6892C67.5876 42.414 67.6079 22.586 57.2067 11.3108C37.9279 -11.402 -0.0203067 2.35165 8.15312e-06 32.5C8.15312e-06 62.6484 37.9279 76.402 57.2067 53.6892ZM34.7181 4.40352C40.6501 4.85047 46.0945 7.12581 50.4418 10.7014H34.7181V4.40352ZM34.7181 15.0489H54.6673C56.7191 17.6493 58.324 20.5951 59.3601 23.8049H34.7181V15.0489ZM34.7181 28.1321H60.3758C60.8634 30.9763 60.8634 34.0237 60.3758 36.8679H34.7181V28.1321ZM34.7181 41.1951H59.3601C58.324 44.4049 56.7191 47.3507 54.6673 49.9511H34.7181V41.1951ZM34.7181 54.2986H50.4418C45.9756 57.9695 40.4835 60.1693 34.7181 60.5965V54.2986Z" fill="white"/>
</svg>
