<svg width="65" height="57" viewBox="0 0 65 57" fill="none" xmlns="http://www.w3.org/2000/svg">
<path d="M63.9798 57H4.07073C3.50794 57 3.05518 56.5151 3.05518 55.9124V49.0831C3.05518 48.4804 3.50794 47.9955 4.07073 47.9955H63.9798C64.5426 47.9955 64.9954 48.4804 64.9954 49.0831V55.9124C64.9954 56.5151 64.5426 57 63.9798 57ZM5.08628 54.8248H62.9643V50.1707H5.08628V54.8248Z" fill="white"/>
<path d="M24.3731 50.0982C24.1023 50.0982 23.8442 49.9849 23.6538 49.781L12.0342 37.3323C11.6364 36.9064 11.6364 36.2175 12.0342 35.7961C12.4319 35.3746 13.0751 35.3701 13.4686 35.7961L24.3731 47.4743L50.092 19.9305C50.4897 19.5045 51.1329 19.5045 51.5264 19.9305C51.9242 20.3565 51.9242 21.0453 51.5264 21.4668L25.0925 49.781C24.902 49.9849 24.6439 50.0982 24.3731 50.0982Z" fill="white"/>
<path d="M50.6549 26.7734H50.6211C50.0625 26.7508 49.6225 26.2478 49.6394 25.6496L49.7621 21.8248L46.1907 21.9562C45.628 21.9743 45.1583 21.5076 45.1413 20.9049C45.1244 20.3021 45.5603 19.7991 46.123 19.781L50.7819 19.6133C51.0654 19.6042 51.3362 19.7175 51.5351 19.9305C51.734 20.1435 51.8398 20.4336 51.8313 20.7372L51.6747 25.7266C51.6493 26.3112 51.2008 26.7734 50.6549 26.7734Z" fill="white"/>
<path d="M37.5372 50.0982C37.2664 50.0982 37.0082 49.9849 36.8178 49.781L25.1982 37.3323C24.8005 36.9064 24.8005 36.2175 25.1982 35.7961C25.596 35.3746 26.2392 35.3701 26.6327 35.7961L37.5372 47.4743L63.256 19.9305C63.6538 19.5045 64.297 19.5045 64.6905 19.9305C65.0882 20.3565 65.0882 21.0453 64.6905 21.4668L38.2565 49.7764C38.0661 49.9849 37.808 50.0982 37.5372 50.0982Z" fill="white"/>
<path d="M63.8232 26.7689H63.7893C63.2308 26.7462 62.7907 26.2432 62.8076 25.645L62.9303 21.8202L59.359 21.9517C58.8004 21.9698 58.3265 21.503 58.3096 20.9003C58.2927 20.3021 58.7285 19.7946 59.2913 19.7764L63.9501 19.6088C64.2336 19.5997 64.5044 19.713 64.7033 19.926C64.9022 20.139 65.008 20.429 64.9995 20.7326L64.843 25.7221C64.8176 26.3066 64.3648 26.7689 63.8232 26.7689ZM14.9625 25.6405C10.0116 25.6405 5.98329 21.3263 5.98329 16.0242C5.98329 10.7221 10.0116 6.40785 14.9625 6.40785C19.9133 6.40785 23.9416 10.7221 23.9416 16.0242C23.9416 21.3263 19.9133 25.6405 14.9625 25.6405ZM14.9625 8.58761C11.133 8.58761 8.01439 11.923 8.01439 16.0287C8.01439 20.1299 11.1288 23.4698 14.9625 23.4698C18.7919 23.4698 21.9105 20.1344 21.9105 16.0287C21.9105 11.923 18.7962 8.58761 14.9625 8.58761ZM14.9625 4.56344C14.3997 4.56344 13.9469 4.07855 13.9469 3.47583V1.08761C13.9469 0.484894 14.3997 0 14.9625 0C15.5252 0 15.978 0.484894 15.978 1.08761V3.47583C15.978 4.07402 15.5252 4.56344 14.9625 4.56344ZM6.67725 8.23867C6.41913 8.23867 6.15678 8.13444 5.9579 7.92145L4.3838 6.23565C4.18492 6.02266 4.08759 5.74622 4.08759 5.46526C4.08759 5.18429 4.18492 4.90786 4.3838 4.69486C4.78156 4.26888 5.42474 4.26888 5.81826 4.69486L7.39237 6.38066C7.59125 6.59366 7.68857 6.87009 7.68857 7.15106C7.68857 7.43202 7.59125 7.70846 7.39237 7.92145C7.19772 8.12991 6.93537 8.23867 6.67725 8.23867ZM3.24553 17.1118H1.01555C0.452767 17.1118 0 16.6269 0 16.0242C0 15.4215 0.452767 14.9366 1.01555 14.9366H3.24553C3.80832 14.9366 4.26108 15.4215 4.26108 16.0242C4.26108 16.6269 3.80409 17.1118 3.24553 17.1118ZM5.09892 27.6752C4.8408 27.6752 4.57844 27.571 4.37957 27.358C4.18069 27.145 4.08336 26.8686 4.08336 26.5876C4.08336 26.3066 4.18069 26.0302 4.37957 25.8172L5.95367 24.1314C6.35143 23.7054 6.99461 23.7054 7.38814 24.1314C7.58702 24.3444 7.68434 24.6208 7.68434 24.9018C7.68434 25.1828 7.58702 25.4592 7.38814 25.6722L5.81403 27.358C5.61939 27.571 5.36127 27.6752 5.09892 27.6752ZM14.9625 32.0529C14.3997 32.0529 13.9469 31.568 13.9469 30.9653V28.577C13.9469 27.9743 14.3997 27.4894 14.9625 27.4894C15.5252 27.4894 15.978 27.9743 15.978 28.577V30.9653C15.978 31.5634 15.5252 32.0529 14.9625 32.0529ZM24.826 27.6752C24.5679 27.6752 24.3055 27.571 24.1067 27.358L23.2096 26.3973L22.5326 25.6722C22.3337 25.4592 22.2363 25.1828 22.2363 24.9018C22.2363 24.6208 22.3337 24.3444 22.5326 24.1314C22.9303 23.7054 23.5735 23.7054 23.967 24.1314L25.5411 25.8172C25.74 26.0302 25.8373 26.3066 25.8373 26.5876C25.8373 26.8686 25.74 27.145 25.5411 27.358C25.3465 27.571 25.0884 27.6752 24.826 27.6752ZM28.9136 17.1118H26.6836C26.1208 17.1118 25.6681 16.6269 25.6681 16.0242C25.6681 15.4215 26.1208 14.9366 26.6836 14.9366H28.9136C29.4764 14.9366 29.9292 15.4215 29.9292 16.0242C29.9292 16.6269 29.4722 17.1118 28.9136 17.1118ZM23.2519 8.23867C22.9938 8.23867 22.7314 8.13444 22.5326 7.92145C22.3337 7.70846 22.2363 7.43202 22.2363 7.15106C22.2363 6.87009 22.3337 6.59366 22.5326 6.38066L24.1067 4.69486C24.5044 4.26888 25.1476 4.26888 25.5411 4.69486C25.74 4.90786 25.8373 5.18429 25.8373 5.46526C25.8373 5.74169 25.74 6.02266 25.5411 6.23565L23.967 7.92145C23.7724 8.12991 23.51 8.23867 23.2519 8.23867Z" fill="white"/>
</svg>
