<svg width="63" height="72" viewBox="0 0 63 72" fill="none" xmlns="http://www.w3.org/2000/svg">
<path d="M7.79229 70C8.26109 70 8.69009 69.6879 8.81759 69.2137C9.09249 68.1937 9.51619 67.0316 9.96379 65.8018C11.9639 60.314 14.7012 52.7994 9.47899 44.4044C9.45909 44.3712 9.43649 44.3406 9.41259 44.3101C5.95419 39.898 4.12529 34.6015 4.12529 28.9955C4.12669 15.2812 15.2975 4.125 29.029 4.125C38.5702 4.125 46.1565 7.37094 50.3919 13.2652C53.8676 18.1022 54.8185 24.3311 52.9352 29.9265C51.5075 34.134 53.6405 38.5487 56.5291 40.3868C58.7431 41.7933 58.7484 42.4985 58.7405 42.5742C58.6873 43.1732 56.8505 43.9223 56.0669 44.2423C54.9261 44.7085 54.1717 45.0166 53.9911 45.7896C53.8291 46.4895 54.0509 47.2904 54.9407 49.2215C55.0695 49.4991 54.7109 49.8829 54.0469 50.454C53.8264 50.6439 53.6365 50.8073 53.4811 50.9866C53.2261 51.288 53.1185 51.6506 53.1716 52.0132C53.2434 52.5033 53.5648 52.8061 53.8556 53.0146C51.3415 54.9284 51.3694 56.7559 51.3973 58.525C51.3986 58.6498 51.4012 58.776 51.4026 58.9035C51.4092 60.0244 51.384 61.1733 51.0254 61.7988C50.8979 62.0206 50.6004 62.5386 48.9575 62.5691C48.8805 62.5705 48.8008 62.5718 48.7211 62.5718C43.8987 62.5718 35.1809 59.4905 31.5896 55.7612C30.4581 54.5858 29.9162 53.4542 29.9786 52.3997C30.0131 51.814 29.5669 51.3106 28.9812 51.2761C28.3955 51.2415 27.8921 51.6878 27.8576 52.2735C27.758 53.9456 28.4978 55.6151 30.0583 57.2354C31.5923 58.8291 33.8342 60.2728 36.3204 61.4575C34.5553 63.4112 33.7797 65.6238 33.6376 68.8883C33.6124 69.474 34.0666 69.9708 34.6523 69.996C35.2393 70.0239 35.7347 69.567 35.7599 68.9813C35.8927 65.9452 36.6206 64.0832 38.3989 62.3646C42.1549 63.8667 46.1605 64.7565 49 64.6941C53.5568 64.6065 53.5395 61.3008 53.5262 58.8889C53.5249 58.7534 53.5236 58.6219 53.5209 58.4918C53.4957 56.8861 53.4811 55.9165 55.2741 54.6057C55.5384 54.4118 56.3366 53.8248 56.3113 52.915C56.2967 52.4037 56.0404 52.0371 55.7588 51.7755C56.5331 51.0716 57.589 49.8762 56.8678 48.3263C56.4202 47.3555 56.217 46.8176 56.1307 46.5201C56.3485 46.4205 56.6354 46.3036 56.8705 46.208C58.4815 45.5505 60.6888 44.6487 60.8575 42.7615C61.0195 40.9433 59.1163 39.5102 57.6687 38.5912C55.5211 37.2245 53.8689 33.782 54.9473 30.6052C57.0484 24.359 55.9912 17.4142 52.1171 12.0234C49.9111 8.95406 46.9228 6.53156 43.2359 4.82226C39.1918 2.94961 34.4119 2 29.029 2C21.8624 2 15.0943 4.80766 9.97169 9.90367C4.83189 15.0183 2.00029 21.7984 2.00029 28.9941C2.00029 35.061 3.97259 40.7932 7.70329 45.5744C12.3398 53.0704 9.91459 59.7243 7.96629 65.074C7.50139 66.349 7.06309 67.5523 6.76429 68.6612C6.61159 69.2283 6.94759 69.8114 7.51469 69.9628C7.60769 69.988 7.70059 70 7.79229 70Z" fill="white" stroke="white" stroke-width="2.5"/>
</svg>
